<svg xmlns="http://www.w3.org/2000/svg" viewBox="6600 0 3500 3291.83"><defs><style>.cls-2{fill:#57ad8d;}</style></defs><title>Element 1</title><g id="Ebene_2" data-name="Ebene 2"><g id="Ebene_1-2" data-name="Ebene 1"><path class="cls-2" d="M8416.19,0C7511,0,6774.46,736.51,6774.46,1641.75c0,306.23,84.73,592.85,231.33,838.43,15.75,28.73,22,62.53,16.78,97.05-61.89,338.22-372.38,584.86-376.12,587.75-10.05,7.85-16.84,14.4-21.49,20.31a35.88,35.88,0,0,0-3.32,4.32,37.81,37.81,0,0,0-2.2,4.16c-.27.57-.58,1.09-.82,1.63a28.71,28.71,0,0,0-1.54,5c-.21,1-.39,2-.57,3v.09a36,36,0,0,0-.63,6,37.28,37.28,0,0,0,15.3,30.18c.21.18.39.36.57.51.39.28.78.43,1.12.67a22.88,22.88,0,0,0,4.37,2.38,34.8,34.8,0,0,0,15,3.44c3.71.36,7.82.57,12.64.57,4.08,0,8.39-.18,13-.51,4.13-.3,414.48-30.17,654.11-55.92,106.77-11.43,229.53-26.61,340-40.89a330,330,0,0,1,148,21,1631.38,1631.38,0,0,0,596.2,112.62c905.28,0,1641.77-736.5,1641.77-1641.77S9321.47,0,8416.19,0"/></g></g></svg>