<svg xmlns="http://www.w3.org/2000/svg" viewBox="0 0 12945.24 3291.83"><defs><style>.cls-1{fill:#fff;}.cls-2{fill:#57ad8d;}</style></defs><title>Element 1</title><g id="Ebene_2" data-name="Ebene 2"><g id="Ebene_1-2" data-name="Ebene 1"><path class="cls-1" d="M2159.8,0c-413,0-728.67,161.71-917.93,374.41-.07-.18,0-.46-.21-.55-3.82,4.69-9.54,8-15.76,8a15.68,15.68,0,0,1-16-17.84.54.54,0,0,0-.3.19l-.55-265.49c1.85-20.18-12.29-36.4-32.29-36.4-1.17,0-2.28.27-3.56.36l0-.27H422.45c-.45,0-.8-.09-1.16-.09-20,0-38.23,16.4-41.26,36.67h-.09L.09,3192.62H.18c-1.95,20.27,12.16,36.67,32.06,36.76H877.36c20.28-.09,38.74-16.94,41.29-37.66a22.83,22.83,0,0,0,0-2.34L1130.3,1465.73c14-97.66,51.49-197,114.27-289.36,140.11-205.67,367-320.18,578.66-313.51,4.75.18,9.49.45,14.14.72,70,4.06,138.27,21.44,200.71,53.6,5.41,2.89,10.94,5.59,16.12,8.83,2.11,1.17,4.23,2.25,6.34,3.43,150.69,95.58,218.69,285.75,189.2,525.93l-212.91,1734a22.06,22.06,0,0,0-.56,2.34c-2.54,20.72,11.87,37.66,32.14,37.66h845v-.09c20-.09,38-16.4,41.07-36.58l.1-.09L3174,1405.46C3279.13,549.63,2928.07,0,2159.8,0"/><path class="cls-1" d="M5636.6,1318H4438.16c0-.09-.08-.09-.07-.18-9.58-.45-16.29-8.19-15.17-18-.18,0-.27,0-.35-.09,69.17-352.79,341.74-606.38,710.2-606.38S5680.62,952.86,5657,1299.79c-1.32,10-10.42,18.1-20.43,18.19M5249.16,0C4305.94,0,3569.65,705.84,3453.08,1655.27s436.16,1636.54,1429.37,1636.54c576.57,0,1009.61-177.47,1380.33-537.11a.08.08,0,0,1-.08-.09,43.21,43.21,0,0,0,15.08-27.38c1.69-13.79-4.13-25.77-14.14-32.34l-510.42-460.17h-.09a32.6,32.6,0,0,0-21.87-8.2c-11.9,0-23.05,5.77-30.9,14.59-.07-.09-.16-.09-.15-.18-161.84,172-410.81,295-706.21,295-449.45,0-670.48-224.86-647-620,1.86-9.28,10.25-16.76,19.73-16.94,0-.09.11-.09.12-.18H6453.27c20.27,0,38.77-16.4,41.35-36.67l31.54-256.93C6632.77,737,6242.29,0,5249.16,0"/><path class="cls-1" d="M11894.82,1305.48c-436.68-106.21-547.75-168.64-527.8-331.07,20.71-168.65,174.36-249.82,443-249.82,298.91,0,529.28,110,691.68,242.25a31.66,31.66,0,0,0,21.2,7.84c14.05,0,27.13-8.2,34.8-20a.25.25,0,0,1,.17.09l377.32-579.18a43.17,43.17,0,0,0,9.75-22.16c1.7-13.87-4.05-25.76-14-32.43C12708.67,122.09,12320.33,0,11899,0c-837.1,0-1380.36,406-1457.82,1036.91-60.59,493.41,233.59,743.31,906.19,912,412.5,99.9,514.19,187.38,493.48,356-22.24,181.17-201.7,268.56-482.69,268.56-336.93,0-608.21-123.06-797.47-289.73l-.1.09a32.16,32.16,0,0,0-22.82-9.28c-15.32,0-29.55,9.55-36.81,23.16l-380.9,580.43a43,43,0,0,0-10.44,22.71c-1.66,13.51,4,25.4,13.73,32,245.06,218.46,675,359,1140.3,359,855.75,0,1431.9-418.55,1509.36-1049.44,58.28-474.67-229.76-774.48-878.18-936.91"/><path class="cls-2" d="M8416.19,0C7511,0,6774.46,736.51,6774.46,1641.75c0,306.23,84.73,592.85,231.33,838.43,15.75,28.73,22,62.53,16.78,97.05-61.89,338.22-372.38,584.86-376.12,587.75-10.05,7.85-16.84,14.4-21.49,20.31a35.88,35.88,0,0,0-3.32,4.32,37.81,37.81,0,0,0-2.2,4.16c-.27.57-.58,1.09-.82,1.63a28.71,28.71,0,0,0-1.54,5c-.21,1-.39,2-.57,3v.09a36,36,0,0,0-.63,6,37.28,37.28,0,0,0,15.3,30.18c.21.18.39.36.57.51.39.28.78.43,1.12.67a22.88,22.88,0,0,0,4.37,2.38,34.8,34.8,0,0,0,15,3.44c3.71.36,7.82.57,12.64.57,4.08,0,8.39-.18,13-.51,4.13-.3,414.48-30.17,654.11-55.92,106.77-11.43,229.53-26.61,340-40.89a330,330,0,0,1,148,21,1631.38,1631.38,0,0,0,596.2,112.62c905.28,0,1641.77-736.5,1641.77-1641.77S9321.47,0,8416.19,0"/></g></g></svg>